# xmcd
# 
# Track frame offsets:
#     150
#     5295
#     17599
#     22613
#     36185
#     47951
#     63443
#     68113
#     79743
#     84463
#     94160
#     105488
#     114871
#     126894
#     131874
#     143399
#     148611
#     157761
#     170897
#     183831
#     190171
#     195406
#     208694
#     214530
#     223108
#     235199
#     249701
# 
# Disc length: 3396
# 
# Revision: 0
# Processed by: cddbd v1.5.2PL0 Copyright (c) Steve Scherf et al.
# Submitted via: fre:ac v1.0.17
# 
DISCID=6b0d421b
DTITLE=Roy Acuff and His Smoky Mountain Boys - The RC Cola Shows Volume 4
DYEAR=2000
DGENRE=Country
TTITLE0=Intro
TTITLE1=Freight Train Blues
TTITLE2=Old Paint
TTITLE3=The Duke of Paducah
TTITLE4=Billy Boy
TTITLE5=Drifting Too Far From Shore
TTITLE6=Intro
TTITLE7=Old Dan Tucker
TTITLE8=Shame on You
TTITLE9=The Duke of Paducah
TTITLE10=Go Back To Texas
TTITLE11=They Can Only Fill One Grave
TTITLE12=Buffalo Gals
TTITLE13=Intro
TTITLE14=Dear John
TTITLE15=Bill Cheatham
TTITLE16=The Duke of Paducah
TTITLE17=Take Me Home Tonight
TTITLE18=I'll Fly Away
TTITLE19=Paper of Pens
TTITLE20=Intro
TTITLE21=Cheating
TTITLE22=Rattlesnake Jig
TTITLE23=The Duke of Paducah
TTITLE24=Stuck Up Blues
TTITLE25=What Would You Give
TTITLE26=The Girl I left Behind
EXTD=
EXTT0=
EXTT1=
EXTT2=
EXTT3=
EXTT4=
EXTT5=
EXTT6=
EXTT7=
EXTT8=
EXTT9=
EXTT10=
EXTT11=
EXTT12=
EXTT13=
EXTT14=
EXTT15=
EXTT16=
EXTT17=
EXTT18=
EXTT19=
EXTT20=
EXTT21=
EXTT22=
EXTT23=
EXTT24=
EXTT25=
EXTT26=
PLAYORDER=
